<svg id="visual" viewBox="0 0 900 600" width="900" height="600" xmlns="http://www.w3.org/2000/svg" xmlns:xlink="http://www.w3.org/1999/xlink" version="1.1"><rect width="900" height="600" fill="#001829"></rect><g><g transform="translate(70 527)"><path d="M0 -147L114.9 -91.7L143.3 32.7L63.8 132.4L-63.8 132.4L-143.3 32.7L-114.9 -91.7Z" fill="#297EA6"></path></g><g transform="translate(794 305)"><path d="M0 -143L111.8 -89.2L139.4 31.8L62 128.8L-62 128.8L-139.4 31.8L-111.8 -89.2Z" fill="#297EA6"></path></g><g transform="translate(575 50)"><path d="M0 -120L93.8 -74.8L117 26.7L52.1 108.1L-52.1 108.1L-117 26.7L-93.8 -74.8Z" fill="#297EA6"></path></g><g transform="translate(96 133)"><path d="M0 -77L60.2 -48L75.1 17.1L33.4 69.4L-33.4 69.4L-75.1 17.1L-60.2 -48Z" fill="#297EA6"></path></g><g transform="translate(663 579)"><path d="M0 -97L75.8 -60.5L94.6 21.6L42.1 87.4L-42.1 87.4L-94.6 21.6L-75.8 -60.5Z" fill="#297EA6"></path></g><g transform="translate(432 353)"><path d="M0 -140L109.5 -87.3L136.5 31.2L60.7 126.1L-60.7 126.1L-136.5 31.2L-109.5 -87.3Z" fill="#297EA6"></path></g></g></svg>